<svg xmlns="http://www.w3.org/2000/svg" width="1760" height="1480" font-family="Helvetica,Arial,sans-serif">
<rect width="100%" height="100%" fill="#ffffff"/>
<text x="30.0" y="42.0" font-size="24" fill="#1b222b" text-anchor="start" font-weight="700">Ramp hook: the final design, to scale</text>
<text x="30.0" y="66.0" font-size="14" fill="#6b7682" text-anchor="start" font-weight="400">All views at one scale (scale bars below). FLOWER from the Competition Manual, Fig 9-12; "est." marks a size scaled off the figure, not dimensioned. Robot sizes are this design's.</text>
<text x="30.0" y="100.0" font-size="17" fill="#1b222b" text-anchor="start" font-weight="700">1 · From the side, cut through the middle (the robot drives right, into the FLOWER)</text>
<line x1="83.3" y1="600.0" x2="949.5" y2="600.0" stroke="#1b222b" stroke-width="1.6"/>
<polygon points="926.4,154.5 946.2,154.5 946.2,600.0 926.4,600.0" fill="#d9dee4" fill-opacity="1.0" stroke="none" stroke-width="1.2"/>
<text x="936.3" y="148.5" font-size="11" fill="#6b7682" text-anchor="middle" font-weight="400">field wall</text>
<polygon points="760.5,585.8 791.0,585.8 791.0,600.0 760.5,600.0" fill="#2b2f35" fill-opacity="1.0" stroke="none" stroke-width="1.2"/>
<polygon points="883.1,585.8 924.8,585.8 924.8,600.0 883.1,600.0" fill="#2b2f35" fill-opacity="1.0" stroke="none" stroke-width="1.2"/>
<polygon points="878.3,482.9 903.0,482.9 903.0,585.8 878.3,585.8" fill="#9aa3ad" fill-opacity="1.0" stroke="#7d8792" stroke-width="1.2" stroke-dasharray="3 2"/>
<polygon points="757.2,463.1 923.1,463.1 923.1,482.9 757.2,482.9" fill="#2b2f35" fill-opacity="1.0" stroke="none" stroke-width="1.2"/>
<polygon points="909.6,187.5 866.7,187.5 866.7,463.1 909.6,463.1" fill="#3fae4f" fill-opacity="0.85" stroke="none" stroke-width="1.2"/>
<polygon points="807.3,187.5 764.4,187.5 764.4,463.1 807.3,463.1" fill="#3fae4f" fill-opacity="0.85" stroke="none" stroke-width="1.2"/>
<text x="837.0" y="179.5" font-size="11" fill="#6b7682" text-anchor="middle" font-weight="400">posts continue to 21.5 in</text>
<circle cx="832.1" cy="553.8" r="46.2" fill="#f1cf3a" stroke="#9a8420" stroke-width="1.2"/>
<circle cx="837.0" cy="458.1" r="46.2" fill="#f1cf3a" stroke="#9a8420" stroke-width="1.2"/>
<circle cx="837.0" cy="362.4" r="46.2" fill="#f1cf3a" stroke="#9a8420" stroke-width="1.2"/>
<circle cx="837.0" cy="266.7" r="46.2" fill="#f1cf3a" stroke="#9a8420" stroke-width="1.2"/>
<polygon points="881.9,576.9 881.9,555.5 865.4,555.5 835.7,576.9" fill="#b06ad8" fill-opacity="1.0" stroke="#6d3a92" stroke-width="1.6"/>
<circle cx="866.3" cy="566.2" r="5.2" fill="#aab3bd" stroke="#5d6670" stroke-width="1.2"/>
<polygon points="867.3,484.5 865.3,484.5 865.3,557.1 867.3,557.1" fill="none" fill-opacity="1.0" stroke="#2f5f9e" stroke-width="2.2" stroke-dasharray="3 3"/>
<polygon points="881.9,484.5 571.7,484.5 571.7,600.0 881.9,600.0" fill="none" fill-opacity="1.0" stroke="#2f5f9e" stroke-width="1.2" stroke-dasharray="7 5"/>
<polygon points="93.2,451.5 571.7,451.5 571.7,583.5 93.2,583.5" fill="#c3cad2" fill-opacity="1.0" stroke="#1b222b" stroke-width="1.2"/>
<circle cx="551.9" cy="553.8" r="42.9" fill="#e8742a" stroke="#b2561d" stroke-width="1.2"/>
<text x="332.4" y="514.2" font-size="14" fill="#1b222b" text-anchor="middle" font-weight="400">chassis (option 3)</text>
<text x="551.9" y="490.4" font-size="12" fill="#e8742a" text-anchor="middle" font-weight="700">intake</text>
<text x="703.7" y="476.5" font-size="12" fill="#2f5f9e" text-anchor="middle" font-weight="700">side wall 3.5 in, beyond (dashed)</text>
<text x="856.3" y="520.8" font-size="12" fill="#2f5f9e" text-anchor="end" font-weight="400">curtains (dotted)</text>
<text x="890.6" y="545.4" font-size="11" fill="#1b222b" text-anchor="start" font-weight="400"></text>
<line x1="571.7" y1="629.7" x2="835.7" y2="629.7" stroke="#b5452f" stroke-width="1.1"/>
<line x1="571.7" y1="625.7" x2="571.7" y2="633.7" stroke="#b5452f" stroke-width="1.1"/>
<line x1="835.7" y1="625.7" x2="835.7" y2="633.7" stroke="#b5452f" stroke-width="1.1"/>
<text x="703.7" y="624.7" font-size="12" fill="#b5452f" text-anchor="middle" font-weight="700">8 in clear</text>
<line x1="835.7" y1="629.7" x2="881.9" y2="629.7" stroke="#b5452f" stroke-width="1.1"/>
<line x1="835.7" y1="625.7" x2="835.7" y2="633.7" stroke="#b5452f" stroke-width="1.1"/>
<line x1="881.9" y1="625.7" x2="881.9" y2="633.7" stroke="#b5452f" stroke-width="1.1"/>
<text x="858.8" y="624.7" font-size="12" fill="#b5452f" text-anchor="middle" font-weight="700">1.4</text>
<line x1="93.2" y1="682.5" x2="881.9" y2="682.5" stroke="#b5452f" stroke-width="1.1"/>
<line x1="93.2" y1="678.5" x2="93.2" y2="686.5" stroke="#b5452f" stroke-width="1.1"/>
<line x1="881.9" y1="678.5" x2="881.9" y2="686.5" stroke="#b5452f" stroke-width="1.1"/>
<text x="487.5" y="677.5" font-size="12" fill="#b5452f" text-anchor="middle" font-weight="700">23.9 in, hook down (R105 limit 24)</text>
<line x1="760.5" y1="652.8" x2="878.3" y2="652.8" stroke="#b5452f" stroke-width="1.1"/>
<line x1="760.5" y1="648.8" x2="760.5" y2="656.8" stroke="#b5452f" stroke-width="1.1"/>
<line x1="878.3" y1="648.8" x2="878.3" y2="656.8" stroke="#b5452f" stroke-width="1.1"/>
<text x="819.4" y="647.8" font-size="12" fill="#b5452f" text-anchor="middle" font-weight="700">3.57 (manual)</text>
<line x1="933.0" y1="600.0" x2="933.0" y2="585.8" stroke="#b5452f" stroke-width="1.1"/>
<line x1="929.0" y1="600.0" x2="937.0" y2="600.0" stroke="#b5452f" stroke-width="1.1"/>
<line x1="929.0" y1="585.8" x2="937.0" y2="585.8" stroke="#b5452f" stroke-width="1.1"/>
<text x="939.0" y="596.9" font-size="12" fill="#b5452f" text-anchor="start" font-weight="700">0.43</text>
<line x1="961.1" y1="600.0" x2="961.1" y2="482.9" stroke="#b5452f" stroke-width="1.1"/>
<line x1="957.1" y1="600.0" x2="965.1" y2="600.0" stroke="#b5452f" stroke-width="1.1"/>
<line x1="957.1" y1="482.9" x2="965.1" y2="482.9" stroke="#b5452f" stroke-width="1.1"/>
<text x="967.1" y="545.4" font-size="12" fill="#b5452f" text-anchor="start" font-weight="700">3.55 opening</text>
<line x1="84.9" y1="600.0" x2="84.9" y2="484.5" stroke="#b5452f" stroke-width="1.1"/>
<line x1="80.9" y1="600.0" x2="88.9" y2="600.0" stroke="#b5452f" stroke-width="1.1"/>
<line x1="80.9" y1="484.5" x2="88.9" y2="484.5" stroke="#b5452f" stroke-width="1.1"/>
<text x="78.9" y="546.2" font-size="12" fill="#b5452f" text-anchor="end" font-weight="700">3.5</text>
<text x="890.6" y="457.1" font-size="11" fill="#6b7682" text-anchor="middle" font-weight="400">lower bracket</text>
<text x="888.6" y="527.4" font-size="11" fill="#55606b" text-anchor="middle" font-weight="400">uprights</text>
<polygon points="93.2,702.3 126.2,702.3 126.2,708.3 93.2,708.3" fill="#1b222b" fill-opacity="1.0" stroke="#1b222b" stroke-width="1"/>
<polygon points="126.2,702.3 159.2,702.3 159.2,708.3 126.2,708.3" fill="#ffffff" fill-opacity="1.0" stroke="#1b222b" stroke-width="1"/>
<polygon points="159.2,702.3 192.2,702.3 192.2,708.3 159.2,708.3" fill="#1b222b" fill-opacity="1.0" stroke="#1b222b" stroke-width="1"/>
<text x="93.2" y="722.3" font-size="11" fill="#6b7682" text-anchor="start" font-weight="400">0</text>
<text x="192.2" y="722.3" font-size="11" fill="#6b7682" text-anchor="middle" font-weight="400">3 in</text>
<text x="126.2" y="722.3" font-size="11" fill="#6b7682" text-anchor="middle" font-weight="400">1 in</text>
<text x="30.0" y="765.0" font-size="17" fill="#1b222b" text-anchor="start" font-weight="700">2 · From above, seated in a FLOWER</text>
<polygon points="926.4,809.5 946.2,809.5 946.2,1370.5 926.4,1370.5" fill="#d9dee4" fill-opacity="1.0" stroke="none" stroke-width="1.2"/>
<polygon points="760.5,1121.7 805.3,1166.6 868.7,1166.6 913.6,1121.7 913.6,1058.3 868.7,1013.4 805.3,1013.4 760.5,1058.3" fill="#2b2f35" fill-opacity="0.85" stroke="none" stroke-width="1.2"/>
<circle cx="837.0" cy="1090.0" r="46.0" fill="#ffffff" stroke="#2b2f35" stroke-width="1.2"/>
<polygon points="878.3,1069.6 903.0,1069.6 903.0,1044.8 878.3,1044.8" fill="#9aa3ad" fill-opacity="1.0" stroke="#7d8792" stroke-width="1.2"/>
<polygon points="878.3,1110.4 903.0,1110.4 903.0,1135.2 878.3,1135.2" fill="#9aa3ad" fill-opacity="1.0" stroke="#7d8792" stroke-width="1.2"/>
<circle cx="888.2" cy="1038.8" r="21.4" fill="#3fae4f" stroke="#2a7a37" stroke-width="1.2" stroke-dasharray="3 2"/>
<circle cx="888.2" cy="1141.2" r="21.4" fill="#3fae4f" stroke="#2a7a37" stroke-width="1.2" stroke-dasharray="3 2"/>
<circle cx="785.9" cy="1038.8" r="21.4" fill="#3fae4f" stroke="#2a7a37" stroke-width="1.2" stroke-dasharray="3 2"/>
<circle cx="785.9" cy="1141.2" r="21.4" fill="#3fae4f" stroke="#2a7a37" stroke-width="1.2" stroke-dasharray="3 2"/>
<circle cx="832.1" cy="1090.0" r="46.2" fill="#f1cf3a" stroke="#9a8420" stroke-width="1.2" stroke-dasharray="4 3"/>
<polygon points="835.7,1045.1 837.0,1134.9 840.5,1134.7 844.0,1134.3 847.5,1133.6 850.9,1132.7 854.2,1131.5 857.4,1130.0 860.5,1128.3 863.4,1126.3 866.2,1124.1 868.8,1121.7 871.1,1119.1 873.3,1116.4 875.3,1113.4 877.0,1110.4 878.5,1107.2 879.7,1103.9 880.7,1100.5 881.3,1097.0 881.8,1093.5 881.9,1090.0 881.8,1086.5 881.3,1083.0 880.7,1079.5 879.7,1076.1 878.5,1072.8 877.0,1069.6 875.3,1066.6 873.3,1063.6 871.1,1060.9 868.8,1058.3 866.2,1055.9 863.4,1053.7 860.5,1051.7 857.4,1050.0 854.2,1048.5 850.9,1047.3 847.5,1046.4 844.0,1045.7 840.5,1045.3 837.0,1045.1 835.7,1134.9" fill="#b06ad8" fill-opacity="0.9" stroke="#6d3a92" stroke-width="1.6"/>
<line x1="866.3" y1="850.8" x2="866.3" y2="1317.7" stroke="#5d6670" stroke-width="10.393700787401574"/>
<polygon points="853.1,850.8 879.5,850.8 879.5,868.9 853.1,868.9" fill="#2f5f9e" fill-opacity="1.0" stroke="none" stroke-width="1.2"/>
<polygon points="853.1,1299.5 879.5,1299.5 879.5,1317.7 853.1,1317.7" fill="#2f5f9e" fill-opacity="1.0" stroke="none" stroke-width="1.2"/>
<line x1="862.3" y1="870.5" x2="862.3" y2="1040.2" stroke="#4f8fe0" stroke-width="3.5"/>
<line x1="862.3" y1="1139.8" x2="862.3" y2="1296.2" stroke="#4f8fe0" stroke-width="3.5"/>
<polygon points="881.9,1317.7 571.7,1317.7 571.7,1329.2 881.9,1329.2" fill="#4f8fe0" fill-opacity="1.0" stroke="#2f5f9e" stroke-width="1.2"/>
<polygon points="93.2,850.8 571.7,850.8 571.7,1329.2 93.2,1329.2" fill="#c3cad2" fill-opacity="1.0" stroke="#1b222b" stroke-width="1.2"/>
<polygon points="542.0,875.5 571.7,875.5 571.7,1304.5 542.0,1304.5" fill="#e8742a" fill-opacity="1.0" stroke="none" stroke-width="1.2"/>
<text x="332.4" y="1095.0" font-size="14" fill="#1b222b" text-anchor="middle" font-weight="400">chassis 14.5 × 14.5</text>
<text x="703.7" y="1050.4" font-size="15" fill="#6b7682" text-anchor="middle" font-weight="700">8 in clear</text>
<text x="703.7" y="1349.2" font-size="12" fill="#2f5f9e" text-anchor="middle" font-weight="700">side wall, 3.5 in tall</text>
<text x="880.3" y="923.4" font-size="12" fill="#2f5f9e" text-anchor="start" font-weight="700">curtains on clips</text>
<text x="880.3" y="949.8" font-size="12" fill="#5d6670" text-anchor="start" font-weight="700">8 mm goBILDA shaft</text>
<text x="837.0" y="984.4" font-size="11" fill="#2b2f35" text-anchor="middle" font-weight="400">FLOWER: bottom ring, uprights,</text>
<text x="837.0" y="998.4" font-size="11" fill="#2b2f35" text-anchor="middle" font-weight="400">posts (dashed), POLLEN (dashed)</text>
<line x1="93.2" y1="1375.2" x2="881.9" y2="1375.2" stroke="#b5452f" stroke-width="1.1"/>
<line x1="93.2" y1="1371.2" x2="93.2" y2="1379.2" stroke="#b5452f" stroke-width="1.1"/>
<line x1="881.9" y1="1371.2" x2="881.9" y2="1379.2" stroke="#b5452f" stroke-width="1.1"/>
<text x="487.5" y="1370.2" font-size="12" fill="#b5452f" text-anchor="middle" font-weight="700">23.9 in total</text>
<line x1="107.2" y1="850.8" x2="107.2" y2="1329.2" stroke="#b5452f" stroke-width="1.1"/>
<line x1="103.2" y1="850.8" x2="111.2" y2="850.8" stroke="#b5452f" stroke-width="1.1"/>
<line x1="103.2" y1="1329.2" x2="111.2" y2="1329.2" stroke="#b5452f" stroke-width="1.1"/>
<text x="113.2" y="1094.0" font-size="12" fill="#b5452f" text-anchor="start" font-weight="700">14.5</text>
<polygon points="93.2,1399.2 126.2,1399.2 126.2,1405.2 93.2,1405.2" fill="#1b222b" fill-opacity="1.0" stroke="#1b222b" stroke-width="1"/>
<polygon points="126.2,1399.2 159.2,1399.2 159.2,1405.2 126.2,1405.2" fill="#ffffff" fill-opacity="1.0" stroke="#1b222b" stroke-width="1"/>
<polygon points="159.2,1399.2 192.2,1399.2 192.2,1405.2 159.2,1405.2" fill="#1b222b" fill-opacity="1.0" stroke="#1b222b" stroke-width="1"/>
<text x="93.2" y="1419.2" font-size="11" fill="#6b7682" text-anchor="start" font-weight="400">0</text>
<text x="192.2" y="1419.2" font-size="11" fill="#6b7682" text-anchor="middle" font-weight="400">3 in</text>
<text x="126.2" y="1419.2" font-size="11" fill="#6b7682" text-anchor="middle" font-weight="400">1 in</text>
<text x="1080.0" y="100.0" font-size="17" fill="#1b222b" text-anchor="start" font-weight="700">3 · The block (ramp_block.stl), 3 × scale</text>
<polygon points="1560.0,320.0 1560.0,255.6 1510.5,255.6 1421.4,320.0" fill="#b06ad8" fill-opacity="0.85" stroke="#6d3a92" stroke-width="2"/>
<circle cx="1513.2" cy="287.8" r="16.2" fill="#ffffff" stroke="#6d3a92" stroke-width="1.5"/>
<line x1="1589.7" y1="389.3" x2="1401.6" y2="389.3" stroke="#1b222b" stroke-width="1.4"/>
<text x="1401.6" y="405.3" font-size="11" fill="#6b7682" text-anchor="start" font-weight="400">tiles</text>
<polygon points="1565.0,346.7 1589.7,346.7 1589.7,389.3 1565.0,389.3" fill="#9aa3ad" fill-opacity="1.0" stroke="none" stroke-width="1.2"/>
<line x1="1421.4" y1="350.0" x2="1560.0" y2="350.0" stroke="#b5452f" stroke-width="1.1"/>
<line x1="1421.4" y1="346.0" x2="1421.4" y2="354.0" stroke="#b5452f" stroke-width="1.1"/>
<line x1="1560.0" y1="346.0" x2="1560.0" y2="354.0" stroke="#b5452f" stroke-width="1.1"/>
<text x="1490.7" y="345.0" font-size="12" fill="#b5452f" text-anchor="middle" font-weight="700">1.4 in (35.6 mm)</text>
<line x1="1560.0" y1="237.6" x2="1510.5" y2="237.6" stroke="#b5452f" stroke-width="1.1"/>
<line x1="1560.0" y1="233.6" x2="1560.0" y2="241.6" stroke="#b5452f" stroke-width="1.1"/>
<line x1="1510.5" y1="233.6" x2="1510.5" y2="241.6" stroke="#b5452f" stroke-width="1.1"/>
<text x="1535.2" y="232.6" font-size="12" fill="#b5452f" text-anchor="middle" font-weight="700">flat 0.5</text>
<line x1="1604.5" y1="389.3" x2="1604.5" y2="255.6" stroke="#b5452f" stroke-width="1.1"/>
<line x1="1600.5" y1="389.3" x2="1608.5" y2="389.3" stroke="#b5452f" stroke-width="1.1"/>
<line x1="1600.5" y1="255.6" x2="1608.5" y2="255.6" stroke="#b5452f" stroke-width="1.1"/>
<text x="1610.5" y="326.5" font-size="12" fill="#b5452f" text-anchor="start" font-weight="700">top 1.35 in</text>
<line x1="1407.4" y1="389.3" x2="1407.4" y2="320.0" stroke="#b5452f" stroke-width="1.1"/>
<line x1="1403.4" y1="389.3" x2="1411.4" y2="389.3" stroke="#b5452f" stroke-width="1.1"/>
<line x1="1403.4" y1="320.0" x2="1411.4" y2="320.0" stroke="#b5452f" stroke-width="1.1"/>
<text x="1401.4" y="358.6" font-size="12" fill="#b5452f" text-anchor="end" font-weight="700">0.7 in up</text>
<line x1="1407.4" y1="320.0" x2="1407.4" y2="255.6" stroke="#b5452f" stroke-width="1.1"/>
<line x1="1403.4" y1="320.0" x2="1411.4" y2="320.0" stroke="#b5452f" stroke-width="1.1"/>
<line x1="1403.4" y1="255.6" x2="1411.4" y2="255.6" stroke="#b5452f" stroke-width="1.1"/>
<text x="1401.4" y="291.8" font-size="12" fill="#b5452f" text-anchor="end" font-weight="700">16.5 mm</text>
<text x="1513.2" y="323.8" font-size="12" fill="#6d3a92" text-anchor="middle" font-weight="700">rod bore 8.30 mm</text>
<text x="1577.8" y="338.7" font-size="11" fill="#6b7682" text-anchor="middle" font-weight="400">upright</text>
<text x="1080.0" y="400.0" font-size="14" fill="#1b222b" text-anchor="start" font-weight="700">From above: the front follows the bottom ring's hole</text>
<polygon points="1421.4,425.4 1425.4,694.6 1435.9,694.2 1446.4,693.0 1456.8,690.9 1467.0,688.1 1476.9,684.4 1486.5,680.0 1495.7,674.8 1504.5,668.9 1512.8,662.4 1520.6,655.2 1527.7,647.4 1534.3,639.1 1540.2,630.3 1545.3,621.1 1549.8,611.5 1553.4,601.6 1556.3,591.4 1558.3,581.1 1559.6,570.6 1560.0,560.0 1559.6,549.4 1558.3,538.9 1556.3,528.6 1553.4,518.4 1549.8,508.5 1545.3,498.9 1540.2,489.7 1534.3,480.9 1527.7,472.6 1520.6,464.8 1512.8,457.6 1504.5,451.1 1495.7,445.2 1486.5,440.0 1476.9,435.6 1467.0,431.9 1456.8,429.1 1446.4,427.0 1435.9,425.8 1425.4,425.4 1421.4,694.6" fill="#b06ad8" fill-opacity="0.85" stroke="#6d3a92" stroke-width="2"/>
<line x1="1513.2" y1="415.4" x2="1513.2" y2="704.6" stroke="#5d6670" stroke-width="2" stroke-dasharray="6 4"/>
<line x1="1405.4" y1="425.4" x2="1405.4" y2="694.6" stroke="#b5452f" stroke-width="1.1"/>
<line x1="1401.4" y1="425.4" x2="1409.4" y2="425.4" stroke="#b5452f" stroke-width="1.1"/>
<line x1="1401.4" y1="694.6" x2="1409.4" y2="694.6" stroke="#b5452f" stroke-width="1.1"/>
<text x="1399.4" y="564.0" font-size="12" fill="#b5452f" text-anchor="end" font-weight="700">2.72 in (69 mm)</text>
<text x="1510.5" y="564.0" font-size="13" fill="#ffffff" text-anchor="middle" font-weight="700">R 1.36 in</text>
<polygon points="1060.0,770.0 1740.0,770.0 1740.0,1250.0 1060.0,1250.0" fill="#fff7ec" fill-opacity="1.0" stroke="#e0a030" stroke-width="1.5"/>
<text x="1076.0" y="800.0" font-size="15" fill="#1b222b" text-anchor="start" font-weight="700">FLOWER (manual, Fig 9-12)</text>
<text x="1084.0" y="827.0" font-size="13" fill="#1b222b" text-anchor="start" font-weight="400">POLLEN</text>
<text x="1724.0" y="827.0" font-size="13" fill="#1b222b" text-anchor="end" font-weight="700">2.8 in</text>
<text x="1084.0" y="854.0" font-size="13" fill="#1b222b" text-anchor="start" font-weight="400">Bottom ring thickness (the pocket's wall)</text>
<text x="1724.0" y="854.0" font-size="13" fill="#1b222b" text-anchor="end" font-weight="700">0.43 in</text>
<text x="1084.0" y="881.0" font-size="13" fill="#1b222b" text-anchor="start" font-weight="400">Bottom ring hole</text>
<text x="1724.0" y="881.0" font-size="13" fill="#1b222b" text-anchor="end" font-weight="700">2.79 in</text>
<text x="1084.0" y="908.0" font-size="13" fill="#1b222b" text-anchor="start" font-weight="400">Retrieval opening, tiles to the lower bracket</text>
<text x="1724.0" y="908.0" font-size="13" fill="#1b222b" text-anchor="end" font-weight="700">3.55 in</text>
<text x="1084.0" y="935.0" font-size="13" fill="#1b222b" text-anchor="start" font-weight="400">Ring's front edge to the uprights</text>
<text x="1724.0" y="935.0" font-size="13" fill="#1b222b" text-anchor="end" font-weight="700">3.57 in</text>
<text x="1076.0" y="962.0" font-size="15" fill="#1b222b" text-anchor="start" font-weight="700">Robot</text>
<text x="1084.0" y="989.0" font-size="13" fill="#1b222b" text-anchor="start" font-weight="400">Chassis (option 3)</text>
<text x="1724.0" y="989.0" font-size="13" fill="#1b222b" text-anchor="end" font-weight="700">14.5 × 14.5 in</text>
<text x="1084.0" y="1016.0" font-size="13" fill="#1b222b" text-anchor="start" font-weight="400">Clear space, intake to the block</text>
<text x="1724.0" y="1016.0" font-size="13" fill="#1b222b" text-anchor="end" font-weight="700">8 in</text>
<text x="1084.0" y="1043.0" font-size="13" fill="#1b222b" text-anchor="start" font-weight="400">Block: front to back × tall, bottom up</text>
<text x="1724.0" y="1043.0" font-size="13" fill="#1b222b" text-anchor="end" font-weight="700">1.4 × 0.7 in, 0.7 in</text>
<text x="1084.0" y="1070.0" font-size="13" fill="#1b222b" text-anchor="start" font-weight="400">Block's top, front curve</text>
<text x="1724.0" y="1070.0" font-size="13" fill="#1b222b" text-anchor="end" font-weight="700">1.35 in, R 1.36 in</text>
<text x="1084.0" y="1097.0" font-size="13" fill="#1b222b" text-anchor="start" font-weight="400">Shaft, through the block</text>
<text x="1724.0" y="1097.0" font-size="13" fill="#1b222b" text-anchor="end" font-weight="700">8 mm, 1.02 in up</text>
<text x="1084.0" y="1124.0" font-size="13" fill="#1b222b" text-anchor="start" font-weight="400">Side wall and curtains</text>
<text x="1724.0" y="1124.0" font-size="13" fill="#1b222b" text-anchor="end" font-weight="700">3.5 in tall, vertical</text>
<text x="1084.0" y="1151.0" font-size="13" fill="#1b222b" text-anchor="start" font-weight="400">Hook down, front to back</text>
<text x="1724.0" y="1151.0" font-size="13" fill="#1b222b" text-anchor="end" font-weight="700">23.9 in of 24</text>
<text x="1084.0" y="1178.0" font-size="13" fill="#1b222b" text-anchor="start" font-weight="400">Stowed (wall in front of the chassis)</text>
<text x="1724.0" y="1178.0" font-size="13" fill="#1b222b" text-anchor="end" font-weight="700">18 in of 18</text>
<text x="1084.0" y="1205.0" font-size="13" fill="#1b222b" text-anchor="start" font-weight="400">Model: 4 POLLEN out, driven to the uprights</text>
<text x="1724.0" y="1205.0" font-size="13" fill="#1b222b" text-anchor="end" font-weight="700">every case, ~1.3 s</text>
<text x="1060.0" y="1285.0" font-size="13" fill="#1b222b" text-anchor="start" font-weight="700">Why the side wall and curtains are 3.5 in tall:</text>
<text x="1060.0" y="1305.0" font-size="13" fill="#6b7682" text-anchor="start" font-weight="400">the curtains pass under the FLOWER's bracket (3.55 in), and stowed the hook fits the 18 in start.</text>
<text x="1060.0" y="1330.0" font-size="13" fill="#6b7682" text-anchor="start" font-weight="400">A falling POLLEN's first bounce is about 13 in high, so no wall stops it. Walls catch the rolling</text>
<text x="1060.0" y="1350.0" font-size="13" fill="#6b7682" text-anchor="start" font-weight="400">and low-hopping ones, which needs a wall taller than a POLLEN's middle (1.4 in).</text>
</svg>