<svg xmlns="http://www.w3.org/2000/svg" width="588" height="563" viewBox="0 0 588 563"><rect width="100%" height="100%" fill="#fff"/><style>
.t{font:600 15px sans-serif;fill:#222}.l{font:11px sans-serif;fill:#333;text-anchor:middle}
.n{font:11px sans-serif;fill:#a33;text-anchor:start}
.body{fill:#eee;stroke:#999}.rail{fill:none;stroke:#999;stroke-dasharray:2 2}.wheel{fill:#ccc;stroke:#777}.roll{fill:#9c9;stroke:#585}
.taken{fill:#f6d7a7;stroke:#c90;opacity:.8}.new{fill:#cde3fb;stroke:#2a6fb5;stroke-width:1.5}
.lane{fill:none;stroke:#2a6fb5;stroke-width:2.5}.belt{fill:none;stroke:#d33;stroke-width:2}
.thin{fill:none;stroke:#555;stroke-dasharray:4 3}.fov{fill:none;stroke:#a3a;stroke-dasharray:6 3}
.pol{fill:#ffe680;stroke:#b90}.nec{fill:#ffb3c6;stroke:#c36}.tur{fill:#ddd0f5;stroke:#649;opacity:.85}
.path{fill:none;stroke:#2a6fb5;stroke-width:1.5;stroke-dasharray:3 3}.env{fill:none;stroke:#000;stroke-dasharray:8 4}
</style><text x="8" y="18" class="t">A. J-kicker up the turret axis (recommended): side, from the left</text>
<rect x="40.3" y="448.0" width="423.4" height="75.6" class="rail"/>
<text x="84.0" y="443.8" class="l">side rails (outboard)</text>
<circle cx="410.8" cy="495.9" r="52.9" class="wheel"/>
<circle cx="93.2" cy="495.9" r="52.9" class="wheel"/>
<circle cx="491.7" cy="455.0" r="26.5" class="roll"/>
<rect x="460.6" y="302.4" width="48.7" height="170.0" class="taken"/>
<text x="485.0" y="298.2" class="l">stowed extractor</text>
<rect x="463.7" y="364.0" width="44.8" height="64.4" class="taken"/>
<polyline points="39.2,548.8 39.2,44.8 543.2,44.8 543.2,548.8" class="env"/>
<text x="44.8" y="61.6" class="n">R102 18 in at the start</text>
<circle cx="364.0" cy="156.8" r="7.0" class="taken"/>
<polyline points="364.0,156.8 585.2,58.4" class="fov"/>
<text x="372.4" y="142.8" class="n">Limelight, lowest ray</text>
<polyline points="0.0,548.8 588.0,548.8" class="thin"/>
<rect x="83.0" y="330.4" width="22.4" height="33.6" class="tur"/>
<rect x="221.1" y="330.4" width="22.4" height="33.6" class="tur"/>
<rect x="79.2" y="184.8" width="168.0" height="145.6" class="thin"/>
<text x="163.2" y="201.6" class="l">launcher on the turret</text>
<text x="163.2" y="218.4" class="l">(its throat takes the ball here)</text>
<polyline points="163.2,543.2 163.2,114.8" class="thin"/>
<text x="163.2" y="106.4" class="l">turret axis X -3.17</text>
<polyline points="476.0,547.4 414.4,523.6 215.0,523.6" class="lane"/>
<polyline points="264.6,408.8 316.4,408.8" class="lane"/>
<polyline points="408.8,522.2 224.0,522.2" class="belt"/>
<circle cx="408.8" cy="530.6" r="7.0" class="new"/>
<circle cx="224.0" cy="530.6" r="7.0" class="new"/>
<polyline points="491.7,455.0 420.0,436.8" class="belt"/>
<polyline points="420.0,436.8 408.8,530.6" class="belt"/>
<circle cx="420.0" cy="436.8" r="8.4" class="new"/>
<text x="324.8" y="543.2" class="l">lane floor 0.9 in up, 2 polycord strands, driven off the roller shaft</text>
<polyline points="113.0,421.5 113.2,428.2 113.9,434.9 114.9,441.5 116.5,448.0 118.4,454.3 120.7,460.6 123.5,466.7 126.7,472.6 130.2,478.2 134.1,483.7 138.3,488.8 142.9,493.7 147.7,498.3 152.9,502.5 158.3,506.4 164.0,509.9 169.9,513.1 176.0,515.8 182.2,518.2 188.6,520.1 195.1,521.6 201.7,522.7 208.4,523.4 215.0,523.6" class="lane"/>
<polyline points="113.0,421.5 113.0,364.0" class="lane"/>
<circle cx="215.0" cy="421.5" r="26.5" class="new"/>
<circle cx="225.1" cy="393.8" r="26.5" class="thin"/>
<polyline points="277.1,444.1 215.0,421.5" class="belt"/>
<circle cx="277.1" cy="444.1" r="8.4" class="new"/>
<text x="321.9" y="453.9" class="l">arm pivot + J motor</text>
<text x="254.2" y="361.3" class="l">J-wheel floats up to 1.05 in for NECTAR</text>
<circle cx="157.6" cy="392.0" r="39.2" class="pol"/>
<polyline points="157.6,347.2 157.6,285.6" class="path"/>
<circle cx="272.6" cy="472.9" r="50.7" class="nec"/>
<circle cx="373.9" cy="472.9" r="50.7" class="nec"/>
<circle cx="463.8" cy="484.4" r="39.2" class="pol"/></svg>